<svg width="455" height="164" viewBox="0 0 455 164" fill="none" xmlns="http://www.w3.org/2000/svg">
<path d="M99.9855 9.264V37.424C99.9855 41.8613 101.031 45.1467 103.122 47.28C105.255 49.4133 108.156 50.48 111.826 50.48C115.495 50.48 118.354 49.4347 120.402 47.344C122.492 45.2107 123.538 41.904 123.538 37.424V9.264H128.018V37.36C128.018 43.0347 126.503 47.3013 123.473 50.16C120.487 53.0187 116.583 54.448 111.762 54.448C106.94 54.448 103.015 53.0187 99.9855 50.16C96.9988 47.3013 95.5055 43.0347 95.5055 37.36V9.264H99.9855ZM187.418 54H182.938L158.17 16.368V54H153.69V9.264H158.17L182.938 46.832V9.264H187.418V54ZM211.197 31.6C211.197 27.2053 212.157 23.28 214.077 19.824C215.997 16.3253 218.621 13.616 221.949 11.696C225.277 9.73333 228.989 8.752 233.085 8.752C238.077 8.752 242.344 9.94667 245.885 12.336C249.469 14.6827 252.072 18.0107 253.693 22.32H248.445C247.165 19.2907 245.202 16.9227 242.557 15.216C239.954 13.5093 236.797 12.656 233.085 12.656C229.8 12.656 226.834 13.424 224.189 14.96C221.586 16.496 219.538 18.7147 218.045 21.616C216.552 24.4747 215.805 27.8027 215.805 31.6C215.805 35.3973 216.552 38.7253 218.045 41.584C219.538 44.4427 221.586 46.64 224.189 48.176C226.834 49.712 229.8 50.48 233.085 50.48C236.797 50.48 239.954 49.648 242.557 47.984C245.202 46.2773 247.165 43.9307 248.445 40.944H253.693C252.072 45.2107 249.469 48.5173 245.885 50.864C242.301 53.2107 238.034 54.384 233.085 54.384C228.989 54.384 225.277 53.424 221.949 51.504C218.621 49.5413 215.997 46.832 214.077 43.376C212.157 39.92 211.197 35.9947 211.197 31.6ZM282.588 9.264V37.424C282.588 41.8613 283.633 45.1467 285.724 47.28C287.857 49.4133 290.759 50.48 294.428 50.48C298.097 50.48 300.956 49.4347 303.004 47.344C305.095 45.2107 306.14 41.904 306.14 37.424V9.264H310.62V37.36C310.62 43.0347 309.105 47.3013 306.076 50.16C303.089 53.0187 299.185 54.448 294.364 54.448C289.543 54.448 285.617 53.0187 282.588 50.16C279.601 47.3013 278.108 43.0347 278.108 37.36V9.264H282.588ZM362.468 9.264V12.976H350.052V54H345.572V12.976H333.092V9.264H362.468ZM37.8869 75.024C43.2149 75.024 47.8709 76.104 51.8549 78.264C55.8869 80.424 58.9829 83.424 61.1429 87.264C63.3029 91.104 64.3829 95.472 64.3829 100.368C64.3829 105.216 63.3029 109.584 61.1429 113.472C58.9829 117.36 55.8869 120.432 51.8549 122.688C47.8709 124.896 43.2149 126 37.8869 126H16.6469V75.024H37.8869ZM36.4469 111.744C40.0469 111.744 42.9029 110.76 45.0149 108.792C47.1269 106.824 48.1829 104.016 48.1829 100.368C48.1829 96.72 47.1269 93.912 45.0149 91.944C42.9029 89.976 40.0469 88.992 36.4469 88.992H32.6309V111.744H36.4469ZM86.1387 75.024V126H70.1547V75.024H86.1387ZM126.046 118.296H109.054L106.534 126H89.7578L108.406 75.024H126.838L145.414 126H128.566L126.046 118.296ZM122.158 106.272L117.55 92.088L112.942 106.272H122.158ZM210.317 75.024V126H194.405V100.584L186.557 126H172.877L165.029 100.584V126H149.045V75.024H168.629L179.861 105.624L190.805 75.024H210.317ZM339.824 126H323.84L306.92 100.368V126H290.936V75.024H306.92L323.84 101.088V75.024H339.824V126ZM368.285 75.024C373.613 75.024 378.269 76.104 382.253 78.264C386.285 80.424 389.381 83.424 391.541 87.264C393.701 91.104 394.781 95.472 394.781 100.368C394.781 105.216 393.701 109.584 391.541 113.472C389.381 117.36 386.285 120.432 382.253 122.688C378.269 124.896 373.613 126 368.285 126H347.045V75.024H368.285ZM366.845 111.744C370.445 111.744 373.301 110.76 375.413 108.792C377.525 106.824 378.581 104.016 378.581 100.368C378.581 96.72 377.525 93.912 375.413 91.944C373.301 89.976 370.445 88.992 366.845 88.992H363.029V111.744H366.845ZM420.497 126.504C414.401 126.504 409.361 125.088 405.377 122.256C401.441 119.376 399.305 115.176 398.969 109.656H415.961C416.201 112.584 417.497 114.048 419.849 114.048C420.713 114.048 421.433 113.856 422.009 113.472C422.633 113.04 422.945 112.392 422.945 111.528C422.945 110.328 422.297 109.368 421.001 108.648C419.705 107.88 417.689 107.016 414.953 106.056C411.689 104.904 408.977 103.776 406.817 102.672C404.705 101.568 402.881 99.96 401.345 97.848C399.809 95.736 399.065 93.024 399.113 89.712C399.113 86.4 399.953 83.592 401.633 81.288C403.361 78.936 405.689 77.16 408.617 75.96C411.593 74.76 414.929 74.16 418.625 74.16C424.865 74.16 429.809 75.6 433.457 78.48C437.153 81.36 439.097 85.416 439.289 90.648H422.081C422.033 89.208 421.673 88.176 421.001 87.552C420.329 86.928 419.513 86.616 418.553 86.616C417.881 86.616 417.329 86.856 416.897 87.336C416.465 87.768 416.249 88.392 416.249 89.208C416.249 90.36 416.873 91.32 418.121 92.088C419.417 92.808 421.457 93.696 424.241 94.752C427.457 95.952 430.097 97.104 432.161 98.208C434.273 99.312 436.097 100.848 437.633 102.816C439.169 104.784 439.937 107.256 439.937 110.232C439.937 113.352 439.169 116.16 437.633 118.656C436.097 121.104 433.865 123.024 430.937 124.416C428.009 125.808 424.529 126.504 420.497 126.504Z" fill="white"/>
<path d="M268.148 131.248L239.188 92.6734L263.052 83.2825L268.148 131.248Z" fill="white"/>
<path d="M246.291 75.7073L262.035 80.6992L238.172 90.0901L246.291 75.7073Z" fill="white"/>
<path d="M242.508 76.2017L225.382 82.9411L215.575 98.734L234.023 91.4741L242.508 76.2017Z" fill="white"/>
<path d="M263.778 128.99L235.396 94.041L217.064 101.255L263.778 128.99Z" fill="white" fill-opacity="0.49"/>
<path d="M249.396 73.4908L266.522 66.7514L284.462 71.6248L266.014 78.8847L249.396 73.4908Z" fill="white"/>
<path d="M269.806 126.618L266.758 81.6991L285.091 74.4849L269.806 126.618Z" fill="white" fill-opacity="0.49"/>
</svg>
