<?xml version="1.0" standalone="no"?>
<!DOCTYPE svg PUBLIC "-//W3C//DTD SVG 20010904//EN"
 "http://www.w3.org/TR/2001/REC-SVG-20010904/DTD/svg10.dtd">
<svg version="1.0" xmlns="http://www.w3.org/2000/svg"
 width="161.000000pt" height="161.000000pt" viewBox="0 0 161.000000 161.000000"
 preserveAspectRatio="xMidYMid meet">
<metadata>
Created by potrace 1.14, written by Peter Selinger 2001-2017
</metadata>
<g transform="translate(0.000000,161.000000) scale(0.100000,-0.100000)"
fill="#000000" stroke="none">
<path d="M170 1325 c-84 -63 -155 -116 -156 -118 -2 -2 91 -3 206 -4 l210 0
118 96 c64 53 130 106 146 119 l29 22 -200 0 -200 0 -153 -115z"/>
<path d="M900 1436 c0 -3 61 -55 136 -118 l136 -113 209 -1 c115 0 209 2 209
5 -1 3 -70 57 -154 119 l-154 112 -191 0 c-105 0 -191 -2 -191 -4z"/>
<path d="M670 1312 l-133 -107 137 -3 c75 -1 195 -1 266 0 l130 3 -117 95
c-63 52 -124 100 -133 107 -15 11 -36 -3 -150 -95z"/>
<path d="M46 1132 c-3 -6 3 -21 15 -33 11 -13 18 -19 15 -13 -3 7 0 14 8 17
10 4 12 0 9 -14 -3 -10 -9 -19 -13 -19 -4 0 10 -19 31 -41 21 -23 36 -45 33
-50 -3 -5 0 -8 8 -7 7 2 12 -4 10 -12 -2 -8 0 -12 4 -7 4 4 20 -14 36 -40 15
-27 28 -42 28 -35 0 8 5 10 13 6 9 -6 9 -4 -1 8 -7 9 -9 19 -4 22 5 3 14 -6
21 -20 14 -31 14 -35 0 -31 -6 1 -14 -5 -16 -13 -4 -12 -3 -12 5 -2 7 11 11
10 17 -5 5 -10 9 -22 9 -27 1 -12 36 -17 36 -5 0 6 5 7 11 3 8 -4 3 -12 -12
-21 -19 -11 -20 -13 -5 -11 10 2 21 -3 24 -11 3 -9 0 -11 -8 -6 -9 5 -11 4 -6
-4 4 -6 11 -9 16 -6 5 3 11 1 15 -5 3 -5 1 -10 -6 -10 -8 0 -8 -4 1 -15 7 -9
20 -13 28 -10 9 3 12 0 9 -9 -7 -17 18 -40 33 -31 7 4 9 -2 6 -19 -3 -18 -1
-24 6 -20 8 5 9 1 4 -11 -6 -16 -4 -16 10 -4 15 12 16 12 10 -7 -7 -23 41 -77
65 -71 8 2 11 2 6 0 -4 -3 -5 -9 -2 -14 4 -5 -2 -6 -12 -3 -11 3 -9 0 5 -8 12
-8 20 -17 16 -21 -4 -3 1 -9 10 -13 9 -3 13 -11 9 -17 -3 -5 -1 -7 5 -4 14 9
43 -3 36 -14 -3 -5 -11 -7 -17 -3 -7 3 -3 -2 8 -11 11 -9 19 -18 18 -20 -8
-14 -1 -16 12 -5 9 8 15 9 15 2 0 -6 -5 -14 -11 -18 -6 -4 -7 -9 -2 -13 5 -3
32 -34 61 -69 29 -35 52 -59 52 -54 0 5 -7 15 -15 22 -8 6 -14 15 -13 18 2 19
-3 33 -11 28 -4 -3 -16 3 -26 14 -10 11 -13 20 -7 20 6 0 14 -4 17 -10 3 -5
12 -10 18 -9 9 0 8 2 -1 6 -6 2 -10 9 -7 13 3 5 -4 14 -15 20 -11 6 -18 15
-15 20 4 6 8 19 10 29 3 15 0 18 -13 14 -15 -6 -15 -5 -3 10 11 14 11 20 1 32
-7 8 -9 15 -5 15 4 0 -4 12 -19 26 -29 29 -32 44 -14 62 9 9 9 12 -1 12 -7 0
-10 4 -7 8 3 5 -6 15 -19 22 -14 7 -25 17 -25 22 0 13 12 10 34 -9 20 -17 20
-17 7 0 -7 9 -10 17 -6 17 4 0 2 6 -4 13 -6 8 -8 17 -4 21 4 4 -1 4 -12 0 -18
-7 -19 -6 -5 12 14 18 14 18 -2 5 -17 -13 -26 -2 -11 13 11 11 12 36 2 36 -6
0 -7 5 -4 10 3 6 2 10 -4 10 -5 0 -8 11 -7 25 2 13 -1 22 -6 19 -5 -3 -7 -12
-4 -19 8 -21 -6 -26 -19 -8 -10 14 -9 20 9 36 11 10 15 15 7 11 -11 -5 -13 -3
-8 10 4 10 3 15 -4 11 -6 -4 -8 4 -4 22 3 19 3 22 -3 10 -10 -23 -22 -24 -34
-3 -5 9 -13 14 -18 11 -5 -3 -11 -1 -15 5 -5 9 1 12 21 9 4 0 10 5 14 11 5 9
9 9 14 1 4 -6 2 -11 -3 -11 -6 0 -11 -4 -11 -10 0 -15 17 -12 24 5 3 8 -1 21
-9 29 -11 11 -12 15 -2 19 6 2 8 8 4 13 -9 9 -28 -16 -21 -27 2 -4 -3 -10 -12
-13 -8 -3 -12 -2 -9 4 3 6 1 10 -5 10 -7 0 -5 7 4 16 9 8 13 21 9 27 -4 6 -1
8 9 5 8 -4 15 0 15 7 0 8 -7 14 -16 14 -36 2 -51 5 -51 11 0 15 14 19 31 10
22 -12 34 3 15 20 -8 6 -13 19 -11 28 2 10 -4 26 -12 37 -12 15 -14 16 -10 3
7 -21 -30 -21 -38 0 -3 7 -9 10 -15 7 -7 -4 -7 -12 0 -25 13 -25 13 -27 -5
-27 -9 0 -14 6 -11 14 4 9 1 11 -5 7 -8 -4 -9 1 -4 17 3 13 3 20 -2 14 -10
-13 -33 -18 -33 -7 0 4 -11 8 -25 8 -14 0 -25 -4 -25 -9 0 -5 -8 -3 -17 4 -10
7 -15 9 -11 5 10 -12 -10 -36 -30 -36 -13 0 -13 2 3 13 11 9 14 16 8 20 -6 4
-18 -5 -27 -18 -9 -14 -21 -23 -26 -20 -14 8 -12 26 1 23 6 -2 14 4 16 12 4
12 3 12 -5 1 -7 -9 -12 -10 -16 -2 -11 17 -26 3 -19 -16 5 -12 3 -14 -8 -8
-12 7 -12 6 -1 -8 12 -14 11 -16 -7 -14 -13 1 -19 6 -16 14 7 18 13 40 7 30
-2 -4 -10 -3 -18 4 -12 10 -13 8 -8 -7 7 -18 7 -18 -13 -1 -12 10 -24 14 -27
9z m22 -27 c-3 -3 -9 2 -12 12 -6 14 -5 15 5 6 7 -7 10 -15 7 -18z m256 12 c5
6 10 -12 7 -29 -1 -8 15 -12 32 -9 10 1 9 -11 -3 -29 -5 -8 -10 -10 -10 -5 0
6 -7 2 -14 -8 -8 -11 -17 -14 -20 -8 -4 5 3 16 15 24 l21 15 -22 7 c-16 5 -19
10 -10 15 8 5 7 9 -5 13 -9 4 -13 3 -10 -2 3 -5 1 -12 -5 -16 -9 -6 -14 7 -11
30 1 6 -7 0 -18 -13 -13 -15 -21 -18 -24 -10 -2 7 -8 9 -13 5 -5 -4 -2 -12 6
-17 8 -6 13 -10 10 -11 -3 0 -13 -2 -22 -4 -10 -2 -18 0 -18 4 0 4 -7 8 -15 8
-8 0 -12 -4 -9 -9 8 -12 -10 -10 -26 5 -12 10 -12 9 -2 -4 10 -14 10 -18 -2
-22 -9 -4 -18 -2 -21 3 -4 6 -2 10 4 10 5 0 8 9 6 21 -3 16 -1 18 9 10 9 -7
16 -7 24 1 9 9 12 9 12 0 0 -17 22 -11 38 11 7 9 17 15 21 13 4 -3 13 -1 21 4
8 5 21 5 31 0 9 -5 19 -6 23 -3z m111 -27 c-1 -8 5 -24 14 -35 15 -19 15 -19
-2 -6 -16 13 -22 10 -51 -19 l-34 -32 -12 22 c-7 14 -8 20 -1 16 11 -7 45 49
37 62 -2 4 8 8 23 7 20 0 28 -5 26 -15z m-309 -28 c-2 -4 7 -23 20 -42 13 -19
24 -28 24 -21 0 10 3 11 13 2 8 -6 17 -8 20 -5 3 4 5 -3 4 -15 -2 -30 -21 -26
-51 12 -14 17 -36 43 -49 56 -12 13 -16 21 -9 17 6 -4 12 -2 12 4 0 6 5 8 10
5 6 -4 8 -9 6 -13z m164 7 c0 -5 -5 -7 -10 -4 -6 3 -13 -1 -16 -9 -3 -9 -10
-13 -16 -10 -12 8 10 34 28 34 8 0 14 -5 14 -11z m29 -15 c-6 -8 -15 -11 -20
-8 -5 3 -9 1 -9 -4 0 -6 -6 -12 -14 -15 -10 -4 -12 0 -9 14 3 10 9 16 14 13 5
-3 12 1 15 10 3 8 12 12 20 9 11 -4 12 -9 3 -19z m-106 -7 c3 -8 -1 -14 -9
-14 -7 0 -10 5 -7 10 3 6 1 7 -6 3 -6 -4 -9 -12 -5 -17 3 -5 10 -7 15 -4 5 4
9 1 9 -5 0 -6 5 -8 12 -4 7 4 8 3 4 -5 -4 -6 -4 -11 1 -10 22 4 25 -2 7 -16
-16 -13 -16 -14 -1 -9 9 3 17 1 17 -5 0 -6 -6 -11 -14 -11 -14 0 -30 -29 -21
-38 3 -3 5 0 5 7 0 7 5 9 11 5 8 -4 7 -10 -1 -18 -8 -8 -15 -6 -26 9 -12 16
-12 20 0 27 17 9 16 53 -1 54 -7 1 -15 3 -18 4 -3 1 -10 3 -17 4 -21 2 -18 21
4 32 32 16 35 16 41 1z m70 -26 c25 15 45 -1 22 -18 -22 -15 -39 -17 -30 -3 3
5 0 7 -8 4 -9 -3 -22 4 -31 18 -24 34 -19 47 7 16 17 -21 26 -25 40 -17z m97
-16 c17 21 29 19 27 -5 -1 -11 -5 -20 -10 -20 -5 0 -6 8 -3 18 5 14 4 14 -9
-2 -8 -11 -15 -23 -15 -28 0 -4 -4 -8 -10 -8 -5 0 -9 3 -9 8 5 28 -3 34 -16
12 -15 -27 -23 -29 -36 -8 -5 8 -9 9 -9 2 0 -7 -10 -15 -22 -19 -14 -4 -18 -8
-10 -12 6 -2 9 -9 6 -14 -3 -6 -11 -5 -20 2 -12 10 -11 14 7 27 17 11 18 16 8
23 -9 5 4 7 31 4 25 -2 39 -2 32 1 -10 5 -10 9 -1 20 10 13 14 12 29 -1 15
-14 18 -14 30 0z m58 -6 c-11 -7 -11 -9 0 -9 10 0 10 -3 -1 -15 -9 -8 -13 -24
-10 -35 3 -12 0 -20 -6 -20 -7 0 -10 4 -7 9 8 13 -21 34 -35 25 -8 -5 -7 -9 5
-16 17 -9 13 -28 -5 -28 -6 0 -7 4 -4 10 3 6 -1 7 -10 4 -10 -4 -15 -2 -13 7
2 9 -5 13 -19 12 -13 -2 -23 1 -23 6 0 5 13 8 30 6 16 -2 33 1 37 8 5 7 15 12
23 12 8 0 14 6 13 13 -2 6 2 12 8 12 5 0 7 4 4 10 -3 6 1 7 10 3 13 -5 14 -7
3 -14z m-107 -64 c11 4 19 3 18 -2 -3 -20 2 -29 21 -30 11 -1 22 2 25 8 4 5
15 4 28 -3 12 -7 26 -11 30 -10 5 1 6 -2 2 -8 -6 -9 8 -14 28 -11 5 1 6 -3 2
-9 -3 -6 -11 -7 -17 -4 -6 4 -8 2 -4 -4 3 -6 2 -13 -4 -17 -9 -5 -14 7 -12 27
1 3 -5 12 -13 18 -12 10 -15 10 -15 0 0 -10 -3 -10 -15 0 -14 12 -19 7 -16
-13 1 -5 -4 -7 -11 -4 -7 2 -12 10 -10 16 1 7 -7 5 -22 -4 -16 -11 -26 -13
-31 -6 -5 10 7 15 27 12 4 0 5 6 1 15 -5 13 -7 13 -14 2 -7 -10 -12 -11 -28
-1 -15 9 -22 10 -27 1 -4 -7 -3 -8 4 -4 8 5 10 1 5 -9 -4 -13 -8 -14 -14 -4
-4 7 -3 21 2 31 5 10 6 18 2 18 -4 0 -1 5 7 10 10 6 17 5 23 -6 5 -9 16 -13
28 -9z m8 -72 c16 -2 20 1 15 9 -6 9 -3 9 9 0 18 -15 41 -7 31 11 -5 9 -4 9 6
0 7 -6 18 -9 25 -6 9 3 12 -2 11 -14 -2 -10 -9 -18 -17 -18 -8 0 -12 7 -11 15
2 8 1 12 -3 8 -4 -3 -7 -10 -7 -15 0 -12 -19 -33 -30 -33 -6 0 -6 6 1 14 9 11
9 16 0 22 -7 4 -9 3 -6 -3 4 -6 0 -16 -8 -23 -16 -13 -10 -34 7 -24 6 4 8 1 6
-7 -3 -8 -10 -13 -16 -12 -7 2 -9 -4 -5 -14 4 -11 8 -13 11 -5 2 7 8 10 13 6
5 -3 14 7 21 21 8 18 14 22 20 13 11 -19 10 -30 -4 -22 -6 4 -8 3 -5 -3 4 -6
-6 -16 -20 -22 -23 -11 -29 -10 -40 5 -8 10 -12 23 -9 30 2 6 1 16 -4 23 -6
11 -12 11 -31 1 -13 -7 -21 -9 -17 -5 4 5 3 13 -2 20 -6 8 -6 20 2 37 11 22
14 24 24 10 6 -8 21 -17 33 -19z m164 -17 c4 -10 -1 -12 -16 -9 -18 4 -19 3
-7 -6 8 -6 12 -11 7 -11 -4 0 0 -11 9 -25 9 -14 20 -23 24 -20 14 9 30 -41 17
-55 -9 -9 -5 -17 18 -37 17 -14 24 -22 18 -19 -7 4 -21 2 -32 -4 -17 -9 -19
-7 -15 15 3 17 0 25 -10 25 -16 0 -49 40 -41 49 3 3 12 -5 21 -17 22 -32 36
-17 17 17 -15 25 -18 26 -34 13 -10 -8 -15 -22 -11 -31 5 -13 4 -14 -10 -1
-11 11 -13 19 -5 32 6 9 14 15 18 12 8 -5 24 15 17 22 -3 2 -16 -1 -29 -8 -21
-10 -25 -18 -25 -60 0 -30 4 -48 12 -48 20 0 39 -29 27 -41 -15 -15 -48 4 -48
28 0 11 -7 18 -20 18 -15 0 -20 6 -19 28 1 15 -3 27 -7 27 -5 0 -9 -4 -9 -10
0 -5 -4 -10 -10 -10 -21 0 -9 18 20 30 43 18 54 34 39 61 -11 22 -12 22 -25 4
-8 -10 -14 -14 -14 -8 0 7 5 15 12 19 19 12 58 14 58 3 0 -6 -4 -8 -9 -5 -8 5
-8 -2 -2 -33 1 -2 8 2 16 9 8 7 12 16 9 22 -6 9 13 38 26 38 4 0 10 -6 13 -14z
m-8 -149 c7 -9 14 -15 17 -12 2 3 5 -2 5 -10 0 -10 -6 -14 -16 -10 -11 3 -10
1 3 -10 10 -8 23 -12 28 -9 4 3 11 -2 14 -10 3 -9 10 -14 15 -11 16 10 31 -33
18 -56 -8 -16 -8 -24 2 -33 9 -8 10 -8 4 4 -7 13 -6 13 6 0 8 -8 20 -21 28
-27 23 -20 0 -15 -37 7 -32 20 -32 20 -16 47 15 26 15 27 0 8 -24 -28 -70 -28
-97 1 l-22 24 22 24 23 25 -19 25 c-11 14 -22 23 -25 21 -3 -3 -5 2 -5 10 0
19 36 14 52 -8z m64 -170 c6 -8 7 -17 3 -21 -4 -5 0 -7 8 -6 25 4 40 0 40 -9
0 -15 -40 -20 -54 -6 -7 8 -15 12 -18 10 -2 -2 -5 7 -6 20 -2 28 9 32 27 12z
m72 -69 c-10 -11 -11 -9 -6 7 6 16 5 17 -4 5 -8 -12 -6 -19 10 -32 14 -12 17
-18 7 -18 -8 0 -20 6 -27 13 -10 8 -12 8 -7 0 3 -6 2 -14 -2 -17 -16 -10 -8
49 8 61 20 15 39 -2 21 -19z m6 -55 c-4 -3 -2 -12 4 -19 6 -7 6 -14 1 -18 -6
-3 -13 1 -16 10 -6 16 0 34 11 34 4 0 3 -3 0 -7z"/>
<path d="M378 1049 l-18 -30 30 21 c17 12 28 26 25 31 -10 15 -19 10 -37 -22z"/>
<path d="M290 936 c0 -2 8 -10 18 -17 15 -13 16 -12 3 4 -13 16 -21 21 -21 13z"/>
<path d="M285 859 c-4 -6 -5 -12 -2 -15 2 -3 7 2 10 11 7 17 1 20 -8 4z"/>
<path d="M307 846 c-3 -7 2 -12 11 -11 23 1 31 18 10 21 -9 1 -19 -3 -21 -10z"/>
<path d="M400 750 c-10 -6 -11 -10 -2 -10 6 0 12 -5 12 -11 0 -5 -6 -7 -12 -3
-10 6 -10 4 0 -8 9 -11 9 -18 2 -21 -7 -4 -7 -5 1 -3 6 1 10 5 9 10 -1 5 4 13
12 18 10 8 10 11 0 15 -6 2 -10 9 -6 14 7 11 3 11 -16 -1z"/>
<path d="M434 659 c-4 -7 -3 -9 4 -5 5 3 13 0 15 -6 4 -9 6 -10 6 -1 1 17 -16
25 -25 12z"/>
<path d="M470 691 c0 -6 4 -12 8 -15 5 -3 9 1 9 9 0 8 -4 15 -9 15 -4 0 -8 -4
-8 -9z"/>
<path d="M474 618 c-16 -19 -16 -20 -1 -9 9 8 21 11 25 7 4 -4 -1 -12 -11 -17
-9 -6 -15 -14 -12 -20 9 -14 45 9 39 24 -3 8 2 14 11 14 18 0 18 -2 5 -27 -6
-11 -6 -21 -1 -24 10 -7 45 43 37 52 -3 3 -6 -1 -6 -9 -1 -8 -7 -3 -15 11 -8
14 -14 19 -15 11 0 -12 -3 -12 -12 -3 -17 17 -22 15 -44 -10z"/>
<path d="M530 1133 c0 -2 32 -119 71 -261 39 -141 72 -264 74 -272 3 -8 20
-73 40 -145 62 -223 67 -240 70 -255 14 -68 21 -58 68 113 26 94 50 180 52
190 2 10 20 75 40 145 19 70 55 201 81 292 25 91 47 172 50 181 4 14 -24 16
-271 15 -151 0 -275 -2 -275 -3z"/>
<path d="M1180 1126 c14 -18 13 -19 -3 -13 -10 4 -16 3 -13 -1 2 -4 1 -14 -4
-22 -6 -9 -3 -18 8 -27 16 -12 16 -14 -2 -28 -10 -8 -24 -12 -30 -8 -6 3 -8 3
-4 -2 4 -4 2 -15 -4 -24 -8 -10 -4 -9 10 3 12 11 22 14 22 8 0 -6 -9 -17 -20
-25 -12 -8 -18 -21 -15 -29 4 -9 -1 -18 -11 -22 -15 -6 -15 -8 2 -28 19 -20
19 -21 -3 -14 -17 6 -22 3 -22 -14 -1 -11 -1 -29 -2 -40 0 -12 -5 -18 -11 -14
-6 4 -8 3 -4 -4 3 -6 1 -14 -5 -17 -5 -4 -8 -14 -5 -22 4 -9 -1 -22 -11 -29
-17 -13 -17 -14 0 -8 13 5 16 2 11 -10 -3 -9 -11 -13 -17 -9 -6 3 -7 1 -3 -6
4 -6 12 -9 17 -6 5 4 9 1 9 -5 0 -6 5 -8 12 -4 7 4 8 3 4 -5 -4 -6 -11 -9 -16
-6 -4 3 -11 -1 -13 -7 -4 -10 -6 -10 -6 0 -1 6 -6 12 -12 12 -5 0 -8 -4 -4 -9
3 -5 1 -13 -5 -16 -8 -5 -8 -11 0 -20 8 -10 5 -17 -12 -29 -12 -9 -17 -16 -10
-16 10 0 10 -5 2 -20 -6 -11 -8 -20 -5 -20 4 0 -1 -7 -10 -16 -17 -17 -15 -41
3 -37 6 2 10 -6 9 -17 -1 -11 -7 -20 -14 -20 -7 0 -12 3 -11 8 2 4 -1 8 -6 10
-6 1 -11 -4 -12 -13 -1 -8 2 -13 7 -9 5 3 9 0 9 -6 0 -6 -7 -13 -15 -16 -8 -4
-15 -10 -15 -16 0 -5 4 -7 9 -4 5 3 12 -1 15 -10 3 -8 10 -12 16 -9 5 3 10 1
10 -4 0 -6 5 -11 12 -11 6 0 8 3 5 6 -3 4 5 15 18 26 23 18 26 46 5 33 -5 -3
-8 4 -7 15 2 24 12 26 21 4 3 -8 10 -12 16 -9 6 4 8 11 5 16 -4 5 1 9 9 9 8 0
17 8 21 19 3 10 14 26 25 36 11 10 16 24 13 33 -5 11 -3 13 8 7 8 -5 3 4 -10
18 -30 33 -14 36 19 5 17 -16 22 -18 18 -6 -4 10 -1 19 8 22 11 4 13 13 8 28
-6 20 -5 21 9 10 13 -11 16 -10 22 8 3 11 12 18 18 14 7 -3 -1 6 -18 20 -19
16 -33 22 -39 16 -6 -6 -17 -10 -26 -10 -12 1 -12 3 3 11 9 6 15 14 12 20 -11
16 11 10 48 -16 32 -21 38 -22 45 -8 5 9 7 24 5 33 -3 10 1 21 8 26 9 5 10 2
5 -11 -5 -15 -4 -16 9 -5 9 7 13 20 10 28 -3 10 0 12 10 9 17 -7 30 9 16 18
-6 3 -8 12 -5 20 4 8 10 12 15 9 5 -3 6 -11 2 -17 -4 -7 0 -6 10 2 21 17 22
35 2 27 -18 -6 -20 5 -3 22 9 9 14 7 25 -6 12 -16 13 -16 6 2 -4 13 -3 17 5
12 6 -3 14 -1 18 5 4 7 3 9 -3 6 -6 -4 -10 4 -10 20 0 24 1 25 12 9 12 -16 14
-16 20 3 3 12 11 19 16 15 5 -3 9 -2 8 3 -4 14 13 43 21 38 5 -3 11 -1 14 4 4
5 2 12 -3 15 -5 4 -12 2 -16 -4 -3 -5 -11 -10 -17 -10 -7 0 -7 4 1 13 6 8 8
17 4 20 -10 10 6 8 27 -3 16 -8 18 -6 15 16 -1 15 2 23 9 21 6 -3 10 -10 8
-16 -1 -7 3 -9 9 -6 7 5 8 10 0 18 -7 7 -4 14 11 21 11 6 19 14 17 18 -2 4 4
13 15 21 16 12 16 14 2 14 -15 0 -20 -10 -17 -29 1 -10 -13 -10 -22 -1 -4 3
-3 11 3 18 11 13 -67 15 -87 2 -8 -5 -13 -3 -13 5 0 10 -2 10 -9 0 -4 -8 -12
-14 -16 -14 -4 0 -12 6 -17 14 -7 10 -8 9 -4 -4 7 -22 -12 -24 -20 -3 -5 12
-9 11 -27 -5 -24 -23 -36 -18 -16 7 13 16 12 17 -3 5 -13 -10 -17 -10 -21 0
-4 10 -6 10 -6 -1 -1 -11 -4 -11 -18 0 -11 10 -14 10 -9 2 4 -7 3 -13 -3 -13
-5 0 -13 5 -16 10 -4 6 -11 8 -16 4 -6 -4 -4 -13 5 -23 9 -10 13 -21 9 -24 -9
-9 -23 -9 -21 1 0 4 -4 18 -10 32 -6 14 -11 19 -11 11 -1 -11 -4 -11 -18 0
-17 13 -17 13 -3 -5z m91 -10 c8 4 9 3 5 -4 -4 -7 -2 -12 3 -12 6 0 11 5 11
12 0 6 6 4 13 -7 9 -12 16 -14 21 -7 4 6 14 8 23 5 12 -5 14 -3 8 8 -8 12 -6
12 8 1 9 -8 22 -10 29 -6 21 13 36 13 42 -1 3 -10 -2 -12 -20 -9 -14 3 -24 0
-24 -7 0 -8 -6 -7 -17 2 -16 13 -17 12 -4 -4 20 -25 8 -30 -16 -7 -17 15 -22
16 -27 5 -3 -8 2 -18 11 -23 10 -6 12 -11 4 -16 -6 -4 -19 7 -31 26 -11 18
-20 27 -20 20 0 -7 -4 -11 -8 -8 -4 2 -14 1 -22 -5 -10 -5 -11 -9 -3 -9 7 0
10 -7 7 -15 -4 -8 -10 -12 -15 -9 -5 3 -6 10 -3 16 5 7 2 8 -7 3 -8 -5 -7 -1
3 11 17 19 17 21 0 39 -16 17 -16 18 0 6 9 -7 23 -9 29 -5z m244 5 c-3 -2 0
-9 5 -16 7 -8 3 -15 -15 -23 -16 -7 -23 -17 -19 -27 7 -17 -11 -21 -22 -3 -5
7 -3 8 6 3 9 -6 11 -4 5 4 -8 14 -25 2 -28 -20 -2 -8 -6 -19 -10 -26 -4 -6 -3
-15 3 -18 8 -5 7 -11 -1 -21 -10 -12 -14 -12 -20 -2 -5 7 -3 16 4 20 9 6 9 8
0 8 -18 0 -16 25 2 40 8 7 12 16 9 22 -4 5 -11 5 -18 -1 -7 -6 -16 -8 -19 -4
-4 3 -7 1 -7 -5 0 -5 5 -12 10 -14 6 -2 1 -9 -10 -16 -17 -10 -19 -10 -17 5 5
30 27 63 40 60 6 -1 17 -9 24 -17 10 -12 12 -9 9 17 -2 18 -2 34 0 36 2 1 19
3 38 3 19 0 33 -2 31 -5z m-299 -33 c1 -11 -3 -15 -13 -11 -12 5 -12 7 -1 14
9 6 9 9 1 9 -27 0 -21 -19 12 -39 19 -11 35 -25 35 -31 0 -6 -12 -2 -27 7 -15
10 -24 13 -20 7 4 -7 0 -15 -9 -18 -8 -3 -12 -10 -9 -16 3 -5 0 -10 -7 -11 -9
0 -10 -2 -1 -5 7 -3 9 -12 6 -20 -4 -11 -9 -12 -18 -4 -13 11 -13 8 -6 -29 1
-2 8 2 16 9 23 19 28 6 6 -14 -17 -16 -19 -15 -34 8 -14 21 -14 26 -2 36 8 7
21 25 29 42 12 24 13 33 3 49 -10 16 -9 21 3 29 20 13 33 8 36 -12z m76 -26
c-3 -9 -1 -13 5 -9 13 8 39 -20 29 -30 -4 -4 -16 -1 -27 6 -12 7 -23 10 -26 7
-7 -7 7 -27 16 -22 4 3 12 -4 19 -15 16 -25 2 -24 -25 1 -22 20 -22 20 -29 -3
-5 -12 -7 -25 -6 -29 1 -5 -2 -8 -8 -8 -5 0 -10 2 -10 4 0 2 -3 12 -7 22 -4
12 -3 15 5 10 8 -5 10 -2 6 8 -10 26 -20 18 -20 -14 0 -16 2 -30 6 -30 3 0 6
-9 7 -21 2 -16 -1 -18 -12 -9 -11 9 -16 6 -26 -12 -7 -13 -12 -26 -11 -30 1
-5 -5 -8 -14 -8 -8 0 -13 4 -10 8 2 4 0 14 -5 22 -7 11 -8 9 -6 -8 2 -13 8
-27 13 -30 12 -9 18 -46 5 -38 -5 4 -12 2 -16 -4 -3 -5 -11 -10 -17 -10 -6 0
-4 8 5 18 9 9 13 22 9 29 -5 8 -11 7 -20 -3 -9 -10 -9 -14 -1 -14 8 0 9 -4 0
-13 -6 -8 -7 -18 -3 -22 4 -5 1 -5 -7 0 -10 6 -12 4 -6 -5 6 -9 4 -11 -6 -5
-11 6 -12 5 -1 -6 18 -20 15 -33 -5 -18 -11 8 -9 4 3 -10 21 -22 22 -22 53 -6
27 13 30 19 20 31 -10 12 -9 17 1 27 8 8 11 8 7 1 -8 -13 16 -37 26 -27 4 3 7
1 7 -5 0 -7 -6 -12 -12 -12 -7 0 -24 -9 -38 -20 -20 -17 -21 -19 -5 -14 l20 7
-20 -16 c-17 -13 -18 -16 -4 -22 9 -3 16 -13 16 -21 0 -9 -6 -13 -14 -10 -8 4
-11 1 -8 -5 4 -6 0 -9 -10 -7 -21 4 -29 -37 -10 -52 31 -26 -24 -114 -72 -115
-23 0 -28 -4 -28 -25 0 -17 5 -24 15 -22 13 3 13 1 -1 -13 -22 -22 -60 -28
-52 -8 5 12 2 14 -8 9 -8 -4 -2 3 12 16 14 13 24 30 24 38 -5 48 -5 46 -15 30
-5 -8 -10 -10 -10 -4 0 6 7 17 15 24 8 7 12 17 8 23 -3 6 -1 7 6 3 8 -5 10 0
7 18 -3 14 2 30 10 37 11 9 12 15 3 25 -6 8 -10 14 -8 15 2 0 15 3 29 5 30 6
44 26 27 39 -17 13 -16 77 1 98 8 9 11 21 8 26 -4 5 -1 13 5 16 5 4 8 14 5 22
-3 8 -1 11 4 8 20 -12 32 7 15 25 -14 15 -14 18 -1 23 8 3 20 -1 27 -9 10 -13
15 -12 35 7 13 12 20 27 16 33 -11 19 -11 36 1 36 8 0 7 3 -1 9 -11 6 -10 10
3 15 10 3 23 1 31 -5 10 -8 16 -4 28 19 8 16 13 32 11 34 -3 3 1 5 9 5 8 0 12
-6 8 -15z m73 -15 c0 -7 -6 -18 -15 -25 -8 -8 -10 -11 -3 -8 6 4 15 2 18 -4 5
-8 12 -7 23 2 12 10 14 10 8 1 -4 -8 -2 -13 5 -13 7 0 10 -3 6 -6 -3 -3 -1
-18 4 -33 8 -20 8 -23 -2 -14 -9 9 -18 9 -33 1 -12 -6 -18 -7 -14 -3 4 5 3 14
-3 22 -8 9 -8 13 -1 13 6 0 14 -5 17 -10 4 -6 11 -8 16 -4 5 3 7 10 3 15 -3 5
-10 7 -15 4 -5 -4 -9 -1 -9 5 0 6 -5 8 -12 4 -7 -5 -8 -3 -3 6 5 9 4 11 -4 6
-6 -4 -9 -12 -6 -17 4 -5 0 -9 -7 -9 -10 0 -10 -2 -1 -8 9 -6 7 -11 -7 -20
-21 -13 -25 -6 -10 18 6 9 5 20 -3 29 -7 9 -8 12 -1 8 11 -7 40 40 35 58 -2 6
1 6 6 2 4 -5 8 -14 8 -20z m-63 -90 c-3 -19 14 -31 23 -17 4 7 14 6 28 -2 12
-6 23 -11 25 -10 1 1 2 0 2 -3 0 -3 0 -10 0 -16 0 -5 -4 -8 -9 -4 -5 3 -19 -7
-30 -21 -13 -16 -27 -24 -36 -20 -8 3 -18 5 -21 5 -3 0 -14 10 -25 23 -15 16
-22 19 -26 10 -4 -10 -8 -10 -21 0 -10 7 -14 8 -10 4 4 -5 2 -16 -5 -24 -9
-13 -9 -14 1 -8 6 4 12 3 12 -1 0 -5 -6 -15 -12 -22 -8 -9 -9 -12 -1 -7 7 4
10 0 8 -11 -2 -10 -4 -22 -4 -26 -1 -5 -5 -6 -11 -2 -5 3 -7 12 -4 19 3 8 1
17 -5 21 -7 4 -8 12 -2 23 5 9 10 22 11 27 4 23 17 37 24 27 4 -6 13 -9 21 -5
9 3 22 0 30 -7 8 -7 15 -9 15 -5 0 4 8 -3 18 -16 26 -31 34 -11 10 26 -11 17
-17 22 -14 12 3 -11 2 -16 -5 -12 -5 4 -7 15 -4 25 7 21 -10 36 -21 19 -4 -8
-3 -9 4 -5 14 9 15 -4 2 -24 -7 -11 -10 -11 -10 -2 0 7 -4 11 -9 7 -5 -3 -13
0 -17 6 -4 8 -3 9 4 5 11 -7 17 6 13 27 -1 5 4 5 10 1 9 -5 10 -2 5 11 -6 16
-5 17 16 2 13 -8 22 -22 20 -30z m-48 -82 c-4 -10 0 -13 16 -10 12 2 23 -2 27
-10 3 -8 10 -12 17 -8 6 3 8 3 4 -2 -4 -4 -3 -14 2 -21 8 -9 6 -12 -7 -10 -10
0 -17 -5 -15 -12 1 -8 -2 -11 -7 -8 -5 4 -17 -4 -25 -16 -9 -12 -16 -19 -16
-15 0 4 -8 3 -18 -2 -10 -5 -24 -6 -31 -2 -10 6 -9 10 4 15 11 4 14 12 10 26
-4 13 -2 20 6 20 7 0 9 -3 6 -7 -11 -10 13 -32 29 -26 12 4 11 8 -6 20 -11 8
-18 19 -14 24 3 6 11 3 18 -7 9 -12 15 -14 20 -5 4 6 12 8 18 5 7 -4 8 -2 4 5
-4 6 -12 9 -17 6 -5 -4 -9 2 -9 12 0 10 -4 14 -8 8 -13 -18 -35 -17 -28 1 5
13 3 14 -7 6 -10 -8 -13 -6 -13 8 0 10 4 17 7 14 4 -2 10 0 14 6 9 15 25 2 19
-15z m-100 -59 c-3 -8 0 -17 6 -21 9 -6 9 -10 -1 -16 -16 -9 -52 8 -44 22 4 5
10 7 15 4 4 -3 10 2 14 10 3 8 8 15 10 15 3 0 3 -6 0 -14z m109 -82 c-4 -11
-9 -12 -19 -3 -17 14 -9 30 11 23 7 -3 11 -12 8 -20z m-43 -32 c-6 -2 -7 -8
-4 -14 3 -5 -2 -8 -12 -6 -14 2 -18 -3 -17 -19 3 -30 -26 -38 -50 -15 -19 19
-19 19 7 17 23 -3 31 5 27 28 0 4 4 7 9 7 6 0 9 3 9 8 -3 19 3 21 21 10 11 -7
16 -14 10 -16z"/>
<path d="M1490 1109 c0 -5 -4 -8 -9 -5 -5 3 -14 0 -19 -7 -8 -10 -6 -13 9 -14
10 -1 19 3 19 8 0 6 4 7 10 4 6 -3 7 1 4 9 -7 18 -14 21 -14 5z"/>
<path d="M1084 742 c2 -8 12 -20 24 -26 21 -11 20 -12 -14 -35 -25 -18 -33
-29 -28 -43 3 -10 2 -18 -3 -17 -19 3 -30 -2 -30 -15 0 -9 8 -13 20 -11 14 3
17 0 13 -11 -3 -9 -6 -19 -6 -22 0 -4 -4 -2 -8 4 -4 6 -13 4 -24 -8 -10 -10
-13 -18 -7 -18 5 0 7 -6 3 -12 -4 -7 -4 -10 1 -6 4 4 14 3 22 -4 10 -8 17 -8
25 0 7 7 8 12 2 12 -5 0 6 9 24 20 18 11 30 25 27 30 -4 6 -11 8 -16 4 -5 -3
-7 -10 -4 -15 4 -5 1 -9 -4 -9 -6 0 -11 6 -11 14 0 18 25 38 35 28 5 -4 5 -1
1 6 -6 10 -11 10 -21 2 -11 -9 -14 -7 -12 9 1 12 5 21 9 21 4 0 8 5 8 11 0 5
-4 7 -10 4 -5 -3 -10 -1 -10 5 0 5 15 19 33 30 31 20 32 20 9 27 -13 3 -19 9
-14 12 6 3 0 11 -13 17 -18 9 -22 8 -21 -4z m1 -92 c3 -5 1 -10 -4 -10 -6 0
-11 5 -11 10 0 6 2 10 4 10 3 0 8 -4 11 -10z m1 -40 c0 -12 -4 -16 -9 -11 -5
5 -6 14 -3 20 10 15 12 14 12 -9z m-12 -63 c-8 -5 -12 -12 -9 -18 10 -15 -11
-11 -24 5 -7 9 -8 17 -2 20 5 3 12 0 14 -6 4 -8 8 -4 13 10 5 18 9 20 15 10 5
-8 2 -16 -7 -21z"/>
<path d="M1326 925 c-6 -17 12 -31 24 -19 5 5 2 14 -5 21 -10 10 -14 9 -19 -2z"/>
<path d="M1150 648 c0 -4 4 -8 9 -8 6 0 12 4 15 8 3 5 -1 9 -9 9 -8 0 -15 -4
-15 -9z"/>
<path d="M1150 1050 c0 -5 5 -10 10 -10 6 0 10 5 10 10 0 6 -4 10 -10 10 -5 0
-10 -4 -10 -10z"/>
<path d="M605 571 c-3 -5 -2 -12 3 -15 5 -3 9 1 9 9 0 17 -3 19 -12 6z"/>
<path d="M946 394 c3 -19 1 -24 -8 -18 -7 4 -4 -2 6 -14 19 -22 10 -31 -12
-12 -6 6 -10 7 -7 4 3 -4 1 -12 -5 -18 -17 -21 27 -16 46 5 9 10 13 19 9 19
-5 0 0 6 10 14 18 13 17 14 -12 30 l-32 16 5 -26z m32 -3 c11 -7 10 -9 -3 -15
-9 -3 -13 -11 -9 -17 4 -8 3 -9 -5 -5 -9 6 -9 11 -1 21 8 10 7 14 -2 18 -7 3
-8 6 -3 6 6 0 16 -3 23 -8z"/>
<path d="M910 300 c-12 -8 -13 -11 -2 -22 11 -11 13 -10 10 2 -2 8 3 14 10 12
8 -1 11 2 7 8 -7 12 -6 12 -25 0z"/>
</g>
</svg>
